<!-- <svg xmlns="http://www.w3.org/2000/svg" width="{179}" height="{47}" viewBox="0 0 179 47" fill="none">
  <path d="M15.12 36.576C13.08 36.576 11.196 36.264 9.468 35.64C7.764 34.992 6.276 34.08 5.004 32.904C3.756 31.728 2.784 30.336 2.088 28.728C1.392 27.12 1.044 25.344 1.044 23.4C1.044 21.456 1.392 19.68 2.088 18.072C2.784 16.464 3.768 15.072 5.04 13.896C6.312 12.72 7.812 11.82 9.54 11.196C11.292 10.548 13.212 10.224 15.3 10.224C17.796 10.224 20.016 10.644 21.96 11.484C23.928 12.324 25.548 13.524 26.82 15.084L21.384 19.872C20.592 18.96 19.728 18.276 18.792 17.82C17.88 17.34 16.86 17.1 15.732 17.1C14.796 17.1 13.944 17.244 13.176 17.532C12.432 17.82 11.796 18.24 11.268 18.792C10.74 19.344 10.332 20.004 10.044 20.772C9.756 21.54 9.612 22.416 9.612 23.4C9.612 24.336 9.756 25.2 10.044 25.992C10.332 26.76 10.74 27.42 11.268 27.972C11.796 28.524 12.42 28.956 13.14 29.268C13.884 29.556 14.712 29.7 15.624 29.7C16.584 29.7 17.52 29.544 18.432 29.232C19.344 28.896 20.316 28.332 21.348 27.54L26.1 33.372C24.564 34.404 22.812 35.196 20.844 35.748C18.876 36.3 16.968 36.576 15.12 36.576ZM18.72 32.292V22.716H26.1V33.372L18.72 32.292ZM42.32 36.36C39.92 36.36 37.82 35.916 36.02 35.028C34.244 34.14 32.864 32.928 31.88 31.392C30.896 29.832 30.404 28.08 30.404 26.136C30.404 24.144 30.884 22.38 31.844 20.844C32.828 19.308 34.16 18.108 35.84 17.244C37.544 16.38 39.452 15.948 41.564 15.948C43.508 15.948 45.296 16.332 46.928 17.1C48.584 17.868 49.904 19.008 50.888 20.52C51.896 22.032 52.4 23.904 52.4 26.136C52.4 26.424 52.388 26.748 52.364 27.108C52.34 27.444 52.316 27.756 52.292 28.044H37.136V24.12H47.972L44.912 25.164C44.912 24.396 44.768 23.748 44.48 23.22C44.216 22.668 43.844 22.248 43.364 21.96C42.884 21.648 42.308 21.492 41.636 21.492C40.964 21.492 40.376 21.648 39.872 21.96C39.392 22.248 39.02 22.668 38.756 23.22C38.492 23.748 38.36 24.396 38.36 25.164V26.388C38.36 27.228 38.528 27.948 38.864 28.548C39.2 29.148 39.68 29.604 40.304 29.916C40.928 30.204 41.684 30.348 42.572 30.348C43.484 30.348 44.228 30.228 44.804 29.988C45.404 29.748 46.028 29.388 46.676 28.908L50.924 33.192C49.964 34.224 48.776 35.016 47.36 35.568C45.968 36.096 44.288 36.36 42.32 36.36ZM67.8195 36.36C65.4195 36.36 63.3195 35.916 61.5195 35.028C59.7435 34.14 58.3635 32.928 57.3795 31.392C56.3955 29.832 55.9035 28.08 55.9035 26.136C55.9035 24.144 56.3835 22.38 57.3435 20.844C58.3275 19.308 59.6595 18.108 61.3395 17.244C63.0435 16.38 64.9515 15.948 67.0635 15.948C69.0075 15.948 70.7955 16.332 72.4275 17.1C74.0835 17.868 75.4035 19.008 76.3875 20.52C77.3955 22.032 77.8995 23.904 77.8995 26.136C77.8995 26.424 77.8875 26.748 77.8635 27.108C77.8395 27.444 77.8155 27.756 77.7915 28.044H62.6355V24.12H73.4715L70.4115 25.164C70.4115 24.396 70.2675 23.748 69.9795 23.22C69.7155 22.668 69.3435 22.248 68.8635 21.96C68.3835 21.648 67.8075 21.492 67.1355 21.492C66.4635 21.492 65.8755 21.648 65.3715 21.96C64.8915 22.248 64.5195 22.668 64.2555 23.22C63.9915 23.748 63.8595 24.396 63.8595 25.164V26.388C63.8595 27.228 64.0275 27.948 64.3635 28.548C64.6995 29.148 65.1795 29.604 65.8035 29.916C66.4275 30.204 67.1835 30.348 68.0715 30.348C68.9835 30.348 69.7275 30.228 70.3035 29.988C70.9035 29.748 71.5275 29.388 72.1755 28.908L76.4235 33.192C75.4635 34.224 74.2755 35.016 72.8595 35.568C71.4675 36.096 69.7875 36.36 67.8195 36.36ZM173.332" fill="#4A83F6" />
</svg> -->
<svg xmlns="http://www.w3.org/2000/svg" width="{30}" height="{47}" viewBox="0 0 30 47" fill="none">
  <rect x="-8" y="0" width="47" height="47" rx="23.5" ry="23.5" fill="white" />
  <text x="15" y="27.5" dominant-baseline="middle" alignment-baseline="middle" text-anchor="middle" font-size="40" font-family="Arial" 
  font-weight="bold" fill="black">G</text>
</svg>
